<svg class="svg-icon" style="width: 1.0048828125em; height: 1em;vertical-align: middle;fill: currentColor;overflow: hidden;" viewBox="0 0 1029 1024" version="1.1" xmlns="http://www.w3.org/2000/svg"><path d="M512 32c-12.8 0-21.333333 8.533333-29.866667 25.6l-138.666667 275.2L34.133333 375.466667C10.666667 379.733333 0 388.266667 0 403.2c0 8.533333 4.266667 19.2 14.933333 29.866667l224 213.333333L185.6 949.333333c0 6.4-2.133333 10.666667-2.133333 12.8 0 8.533333 2.133333 14.933333 6.4 21.333333 4.266667 6.4 10.666667 8.533333 19.2 8.533333 6.4 0 14.933333-2.133333 25.6-6.4l277.333333-142.933333 277.333333 142.933333c8.533333 4.266667 17.066667 6.4 25.6 6.4 8.533333 0 14.933333-2.133333 19.2-8.533333 4.266667-6.4 6.4-12.8 6.4-21.333333 0-4.266667 0-8.533333 0-12.8l-53.333333-302.933333 224-213.333333c10.666667-10.666667 17.066667-19.2 17.066667-29.866667 0-14.933333-10.666667-23.466667-34.133333-27.733333l-309.333333-44.8L541.866667 57.6C533.333333 40.533333 524.8 32 512 32L512 32z"  /></svg>